<svg width="1200" height="900" viewBox="0 0 1200 900" fill="none" xmlns="http://www.w3.org/2000/svg">
  <defs>
    <linearGradient id="bg" x1="120" y1="80" x2="1080" y2="820" gradientUnits="userSpaceOnUse">
      <stop stop-color="#F5EFE7" />
      <stop offset="1" stop-color="#E6DDCF" />
    </linearGradient>
    <linearGradient id="accent" x1="220" y1="180" x2="980" y2="720" gradientUnits="userSpaceOnUse">
      <stop stop-color="#A9B7A0" />
      <stop offset="1" stop-color="#8C6B4F" />
    </linearGradient>
  </defs>
  <rect width="1200" height="900" rx="56" fill="url(#bg)" />
  <rect x="150" y="132" width="900" height="636" rx="42" fill="#FAF7F2" opacity="0.9" />
  <rect x="230" y="230" width="740" height="30" rx="15" fill="#D9CEBE" opacity="0.9" />
  <rect x="230" y="278" width="560" height="18" rx="9" fill="#E4DCCC" opacity="0.9" />
  <path d="M325 610C325 505.82 409.82 421 514 421H686C790.18 421 875 505.82 875 610V690H325V610Z" fill="url(#accent)" opacity="0.22" />
  <path d="M385 610C385 540.35 441.35 484 511 484H689C758.65 484 815 540.35 815 610V660H385V610Z" fill="url(#accent)" opacity="0.45" />
  <circle cx="360" cy="332" r="34" fill="#C8B08D" opacity="0.65" />
  <circle cx="840" cy="342" r="52" fill="#A9B7A0" opacity="0.35" />
  <circle cx="762" cy="640" r="112" fill="#8C6B4F" opacity="0.16" />
  <path d="M520 420C520 389.072 544.072 365 575 365H625C655.928 365 680 389.072 680 420V458H520V420Z" fill="#FAF7F2" opacity="0.96" />
  <rect x="450" y="210" width="300" height="16" rx="8" fill="#C9BBA8" opacity="0.65" />
  <rect x="430" y="752" width="340" height="14" rx="7" fill="#C9BBA8" opacity="0.45" />
  <text x="600" y="840" text-anchor="middle" fill="#7B6A58" font-family="Arial, sans-serif" font-size="38" font-weight="700">Image unavailable</text>
</svg>